<svg width="12" height="12" viewBox="0 0 12 12" fill="none" xmlns="http://www.w3.org/2000/svg">
<path id="Vector" d="M11.0921 2.18182H2.01405C1.89367 2.18182 1.77822 2.12435 1.6931 2.02206C1.60797 1.91977 1.56015 1.78103 1.56015 1.63636C1.56015 1.4917 1.60797 1.35296 1.6931 1.25067C1.77822 1.14838 1.89367 1.09091 2.01405 1.09091H9.7304C9.85079 1.09091 9.96624 1.03344 10.0514 0.931149C10.1365 0.828857 10.1843 0.690118 10.1843 0.545455C10.1843 0.400791 10.1365 0.262053 10.0514 0.15976C9.96624 0.0574675 9.85079 0 9.7304 0H2.01405C1.65291 0 1.30655 0.172402 1.05118 0.47928C0.795809 0.786158 0.652344 1.20237 0.652344 1.63636V10.3636C0.652344 10.7976 0.795809 11.2138 1.05118 11.5207C1.30655 11.8276 1.65291 12 2.01405 12H11.0921C11.3329 12 11.5638 11.8851 11.734 11.6805C11.9043 11.4759 11.9999 11.1984 11.9999 10.9091V3.27273C11.9999 2.9834 11.9043 2.70592 11.734 2.50134C11.5638 2.29675 11.3329 2.18182 11.0921 2.18182ZM9.04955 7.63636C8.91489 7.63636 8.78325 7.58838 8.67129 7.49848C8.55932 7.40857 8.47206 7.28079 8.42052 7.13129C8.36899 6.98178 8.35551 6.81727 8.38178 6.65856C8.40805 6.49985 8.47289 6.35407 8.56811 6.23964C8.66333 6.12522 8.78465 6.04729 8.91672 6.01572C9.04879 5.98415 9.18569 6.00035 9.3101 6.06228C9.43451 6.12421 9.54085 6.22908 9.61566 6.36362C9.69047 6.49817 9.7304 6.65636 9.7304 6.81818C9.7304 7.03518 9.65867 7.24328 9.53099 7.39672C9.4033 7.55016 9.23012 7.63636 9.04955 7.63636Z" fill="white"/>
</svg>
